<svg xmlns="http://www.w3.org/2000/svg" width="16" height="16" viewBox="0 0 16 16" fill="none">
  <path d="M10.333 6H9.33301V5L10.333 5V6Z" fill="#7070ff"/>
  <path d="M11.333 5L10.333 5V4L11.333 4V5Z" fill="#7070ff"/>
  <path d="M12.333 4H11.333L11.333 3L12.333 3L12.333 4Z" fill="#7070ff"/>
  <path d="M13.333 4L12.333 4L12.333 3L13.333 3L13.333 4Z" fill="#7070ff"/>
  <path d="M14.333 5L13.333 5V4L14.333 4V5Z" fill="#7070ff"/>
  <path d="M13.333 6H12.333V5H13.333V6Z" fill="#7070ff"/>
  <path d="M5.33301 7L5.33301 6L4.33301 6L4.33301 7L5.33301 7Z" fill="#7070ff"/>
  <path d="M4.33301 8V7L3.33301 7L3.33301 8L4.33301 8Z" fill="#7070ff"/>
  <path d="M3.33301 9L3.33301 8L2.33301 8L2.33301 9H3.33301Z" fill="#7070ff"/>
  <path d="M3.33301 10L3.33301 9H2.33301L2.33301 10H3.33301Z" fill="#7070ff"/>
  <path d="M4.33301 11L4.33301 10H3.33301L3.33301 11L4.33301 11Z" fill="#7070ff"/>
  <path d="M10.333 7H9.33301L9.33301 6H10.333L10.333 7Z" fill="#7070ff"/>
  <path d="M9.33301 8H8.33301V7L9.33301 7L9.33301 8Z" fill="#7070ff"/>
  <path d="M8.33301 8H7.33301V7H8.33301V8Z" fill="#7070ff"/>
  <path d="M11.333 8L10.333 8L10.333 7L11.333 7V8Z" fill="#7070ff"/>
  <path d="M12.333 8L10.333 8L10.333 7L12.333 7V8Z" fill="#7070ff"/>
  <path d="M13.333 7H12.333V6H13.333V7Z" fill="#7070ff"/>
  <path d="M5.33301 10L5.33301 9H4.33301L4.33301 10L5.33301 10Z" fill="#7070ff"/>
  <path d="M9.33301 8H8.33301V11H9.33301V8Z" fill="#7070ff"/>
  <path d="M8.33301 11L7.33301 11V14H8.33301V11Z" fill="#7070ff"/>
  <path d="M6.33301 7L6.33301 6H5.33301L5.33301 7H6.33301Z" fill="#7070ff"/>
  <path d="M7.33301 8V7L6.33301 7L6.33301 8H7.33301Z" fill="#7070ff"/>
  <path d="M7.33301 9L7.33301 7L6.33301 7L6.33301 9H7.33301Z" fill="#7070ff"/>
  <path d="M6.33301 10V9H5.33301L5.33301 10H6.33301Z" fill="#7070ff"/>
</svg>